TITLE "Ben Folds File"
PERFORMER "Ben Folds Five & Ben Folds"
REM GENRE "Rock"
REM DATE "2009"
REM DISCID F8110612
FILE "Ben Folds File.flac" WAVE
  TRACK 01 AUDIO
    TITLE "Song For The Dumped"
    PERFORMER "Ben Folds Five"
    ISRC USSM19603706
    INDEX 01 00:00:00
  TRACK 02 AUDIO
    TITLE "Jackson Cannery"
    PERFORMER "Ben Folds Five"
    ISRC USCN39500001
    INDEX 01 03:52:46
  TRACK 03 AUDIO
    TITLE "Philosophy"
    PERFORMER "Ben Folds Five"
    ISRC USCN39500002
    INDEX 01 07:14:62
  TRACK 04 AUDIO
    TITLE "Underground"
    PERFORMER "Ben Folds Five"
    ISRC USCN39500006
    INDEX 01 11:49:36
  TRACK 05 AUDIO
    TITLE "Brick"
    PERFORMER "Ben Folds Five"
    ISRC USSM19603695
    INDEX 00 16:01:17
    INDEX 01 16:02:60
  TRACK 06 AUDIO
    TITLE "Video Killed The Radio Star"
    PERFORMER "Ben Folds Five"
    ISRC USSM10415566
    INDEX 01 20:35:62
  TRACK 07 AUDIO
    TITLE "Army"
    PERFORMER "Ben Folds Five"
    ISRC USSM19900210
    INDEX 01 24:17:58
  TRACK 08 AUDIO
    TITLE "Don't Change Your Plans"
    PERFORMER "Ben Folds Five"
    ISRC USSM19900207
    INDEX 01 27:41:43
  TRACK 09 AUDIO
    TITLE "Annie Waits"
    PERFORMER "Ben Folds"
    ISRC USSM10105168
    INDEX 01 32:53:50
  TRACK 10 AUDIO
    TITLE "Zak And Sara"
    PERFORMER "Ben Folds"
    ISRC USSM10105170
    INDEX 01 37:10:47
  TRACK 11 AUDIO
    TITLE "Still Fighting It"
    PERFORMER "Ben Folds"
    ISRC USSM10105172
    INDEX 01 40:21:71
  TRACK 12 AUDIO
    TITLE "In Between Days"
    PERFORMER "Ben Folds"
    ISRC USSM10309315
    INDEX 01 44:48:10
  TRACK 13 AUDIO
    TITLE "There's Always Someone Cooler Than You"
    PERFORMER "Ben Folds"
    ISRC USSM10312300
    INDEX 01 47:41:10
  TRACK 14 AUDIO
    TITLE "Landed"
    PERFORMER "Ben Folds"
    ISRC USSM10500189
    INDEX 01 51:55:72
  TRACK 15 AUDIO
    TITLE "Give Judy My Notice"
    PERFORMER "Ben Folds"
    ISRC USSM10415805
    INDEX 01 56:23:25
  TRACK 16 AUDIO
    TITLE "Black Glasses"
    PERFORMER "Ben Folds featuring Angela Aki"
    INDEX 00 59:59:40
    INDEX 01 60:01:34
  TRACK 17 AUDIO
    TITLE "Song For The Dumped (Japanese Version)"
    PERFORMER "Ben Folds Five"
    ISRC USSM19605291
    INDEX 00 63:47:28
    INDEX 01 63:49:70
  TRACK 18 AUDIO
    TITLE "HIROSHIMA -B B B Benny Hit His Head- (Japanese Version)"
    PERFORMER "Ben Folds"
    ISRC USSM10804489
    INDEX 01 68:52:35
